<?xml version="1.0" encoding="UTF-8" standalone="no"?>
<!-- Created with Inkscape (http://www.inkscape.org/) -->

<svg
   xmlns:dc="http://purl.org/dc/elements/1.1/"
   xmlns:cc="http://creativecommons.org/ns#"
   xmlns:rdf="http://www.w3.org/1999/02/22-rdf-syntax-ns#"
   xmlns:svg="http://www.w3.org/2000/svg"
   xmlns="http://www.w3.org/2000/svg"
   xmlns:sodipodi="http://sodipodi.sourceforge.net/DTD/sodipodi-0.dtd"
   xmlns:inkscape="http://www.inkscape.org/namespaces/inkscape"
   width="276.11722mm"
   height="47.33181mm"
   viewBox="0 0 978.3681 167.71114"
   id="svg2"
   version="1.1"
   inkscape:version="0.91 r13725"
   sodipodi:docname="OuiShare_Fest_logo_horizontal_white.svg"
   inkscape:export-filename="/Users/auli/Documents/OuiShare/OSFest16/logo-edges/OuiShare_Fest_logo_horizontal_white.png"
   inkscape:export-xdpi="199.98801"
   inkscape:export-ydpi="199.98801">
  <defs
     id="defs4">
    <clipPath
       id="clipPath4169"
       clipPathUnits="userSpaceOnUse">
      <path
         inkscape:connector-curvature="0"
         id="path4171"
         d="m 0,595.28 841.89,0 L 841.89,0 0,0 0,595.28 Z" />
    </clipPath>
  </defs>
  <sodipodi:namedview
     id="base"
     pagecolor="#ffffff"
     bordercolor="#666666"
     borderopacity="1.0"
     inkscape:pageopacity="0.0"
     inkscape:pageshadow="2"
     inkscape:zoom="0.35"
     inkscape:cx="524.4664"
     inkscape:cy="-230.96657"
     inkscape:document-units="px"
     inkscape:current-layer="layer1"
     showgrid="false"
     fit-margin-top="10"
     fit-margin-left="10"
     fit-margin-right="10"
     fit-margin-bottom="10"
     inkscape:window-width="1653"
     inkscape:window-height="1005"
     inkscape:window-x="27"
     inkscape:window-y="1"
     inkscape:window-maximized="1" />
  <metadata
     id="metadata7">
    <rdf:RDF>
      <cc:Work
         rdf:about="">
        <dc:format>image/svg+xml</dc:format>
        <dc:type
           rdf:resource="http://purl.org/dc/dcmitype/StillImage" />
        <dc:title></dc:title>
      </cc:Work>
    </rdf:RDF>
  </metadata>
  <g
     inkscape:label="Layer 1"
     inkscape:groupmode="layer"
     id="layer1"
     transform="translate(-529.10503,-133.68449)">
    <g
       id="g4345"
       transform="matrix(1.25,0,0,-1.25,1149.9557,229.53681)"
       style="fill:#ffffff">
      <path
         d="m 0,0 0,20.699 0,7.183 21.595,0 c 2.955,0 4.904,2.537 4.904,5.302 0,2.617 -1.818,5.394 -4.904,5.394 l -26.765,0 c -2.66,0 -5.177,-2.547 -5.177,-5.544 l 0,-45.228 c 0,-3.467 2.579,-5.693 5.177,-5.693 2.653,0 5.17,2.226 5.17,5.693 L 0,0 Z"
         style="fill:#ffffff;fill-opacity:1;fill-rule:nonzero;stroke:none"
         id="path4347"
         inkscape:connector-curvature="0" />
    </g>
    <g
       id="g4349"
       transform="matrix(1.25,0,0,-1.25,1154.2579,223.81644)"
       style="fill:#ffffff">
      <path
         d="m 0,0 13.613,0 c 3.015,0 4.824,2.535 4.824,5.233 0,2.615 -1.809,5.311 -4.824,5.311 L 0,10.544 0,0 Z"
         style="fill:#ffffff;fill-opacity:1;fill-rule:nonzero;stroke:none"
         id="path4351"
         inkscape:connector-curvature="0" />
    </g>
    <g
       id="g4353"
       transform="matrix(1.25,0,0,-1.25,1223.7642,205.54731)"
       style="fill:#ffffff">
      <path
         d="m 0,0 0,8.69 21.318,0 c 2.943,0 4.904,2.537 4.904,5.302 0,2.696 -1.889,5.394 -4.904,5.394 l -26.497,0 c -2.803,0 -5.171,-2.466 -5.171,-5.704 l 0,-44.677 c 0,-3.158 2.305,-5.695 5.171,-5.695 l 26.568,0 c 2.872,0 4.894,2.459 4.894,5.304 0,2.848 -2.022,5.383 -4.894,5.383 L 0,-26.003 0,-17.311 0,0 Z"
         style="fill:#ffffff;fill-opacity:1;fill-rule:nonzero;stroke:none"
         id="path4355"
         inkscape:connector-curvature="0" />
    </g>
    <g
       id="g4357"
       transform="matrix(1.25,0,0,-1.25,1228.0634,222.66356)"
       style="fill:#ffffff">
      <path
         d="m 0,0 13.409,0 c 2.732,0 4.825,2.227 4.825,5.152 0,2.696 -1.89,5.303 -4.825,5.303 L 0,10.455 0,0 Z"
         style="fill:#ffffff;fill-opacity:1;fill-rule:nonzero;stroke:none"
         id="path4359"
         inkscape:connector-curvature="0" />
    </g>
    <g
       id="g4361"
       transform="matrix(1.25,0,0,-1.25,1306.5049,209.18506)"
       style="fill:#ffffff">
      <path
         d="m 0,0 c -1.041,0.436 -1.961,0.827 -2.573,1.063 -2.854,1.155 -5.239,2.459 -5.239,6.147 0,2.776 2.523,5.471 6.508,5.471 4.051,0 6.508,-1.621 8.947,-3.155 0.982,-0.621 1.746,-0.923 2.872,-0.923 3.211,0 5.029,2.687 5.029,5.383 0,1.844 -0.772,3.075 -1.612,4 -2.024,2.153 -7.754,5.304 -15.165,5.304 -10.908,0 -16.929,-8.534 -16.929,-16.08 0,-9.693 6.093,-13.461 10.622,-15.377 0,0 1.559,-0.648 3.372,-1.41 C -2.774,-6.385 -1.394,-3.194 0,0"
         style="fill:#ffffff;fill-opacity:1;fill-rule:nonzero;stroke:none"
         id="path4363"
         inkscape:connector-curvature="0" />
    </g>
    <g
       id="g4365"
       transform="matrix(1.25,0,0,-1.25,1292.9815,234.10431)"
       style="fill:#ffffff">
      <path
         d="m 0,0 c -0.701,0.532 -1.751,1.233 -3.221,1.233 -3.006,0 -4.967,-2.615 -4.967,-5.543 0,-1.535 0.496,-2.998 1.756,-4.152 2.733,-2.464 9.09,-6.232 16.71,-6.232 10.56,0 17.966,6.616 17.966,16.309 0,9 -6.075,13.46 -11.878,15.917 -0.603,0.266 -1.442,0.639 -2.385,1.046 C 12.61,15.395 11.216,12.203 9.831,9.01 11.198,8.433 12.234,8 12.234,8 c 4.338,-1.845 5.66,-3.77 5.66,-6.385 0,-3.308 -2.792,-5.693 -7.54,-5.693 C 5.53,-4.078 1.479,-1.233 0,0"
         style="fill:#ffffff;fill-opacity:1;fill-rule:nonzero;stroke:none"
         id="path4367"
         inkscape:connector-curvature="0" />
    </g>
    <g
       id="g4369"
       transform="matrix(1.25,0,0,-1.25,1370.2461,198.99793)"
       style="fill:#ffffff">
      <path
         d="m 0,0 0,-36.625 c 0,-2.768 1.961,-5.693 5.177,-5.693 3.211,0 5.172,2.925 5.172,5.693 L 10.349,0 0,0 Z"
         style="fill:#ffffff;fill-opacity:1;fill-rule:nonzero;stroke:none"
         id="path4371"
         inkscape:connector-curvature="0" />
    </g>
    <g
       id="g4373"
       transform="matrix(1.25,0,0,-1.25,1366.6839,194.68456)"
       style="fill:#ffffff">
      <path
         d="m 0,0 0,0 16.045,0 6.101,0 c 2.935,0 4.896,2.537 4.896,5.302 0,2.776 -1.961,5.394 -4.896,5.394 l -28.315,0 c -3.019,0 -4.833,-2.776 -4.833,-5.394 C -11.002,2.615 -9.188,0 -6.169,0 L 0,0 Z"
         style="fill:#ffffff;fill-opacity:1;fill-rule:nonzero;stroke:none"
         id="path4375"
         inkscape:connector-curvature="0" />
    </g>
    <g
       id="g4377"
       transform="matrix(1.25,0,0,-1.25,568.7581,215.34269)"
       style="fill:#ffffff">
      <path
         d="m 0,0 0,5.566 c 0,1.067 0.074,2.141 0.24,3.196 0.081,0.553 0.184,1.107 0.304,1.654 0.127,0.541 0.267,1.082 0.437,1.614 0.333,1.083 0.747,2.136 1.248,3.151 0.49,0.993 1.07,1.948 1.735,2.842 0.33,0.433 0.677,0.854 1.05,1.254 0.368,0.401 0.758,0.781 1.175,1.142 0.403,0.36 0.834,0.693 1.291,1 0.451,0.308 0.925,0.595 1.408,0.847 0.25,0.134 0.507,0.254 0.764,0.368 0.26,0.121 0.521,0.227 0.794,0.328 0.274,0.099 0.554,0.191 0.847,0.279 0.281,0.094 0.564,0.166 0.864,0.233 0.641,0.16 1.295,0.274 1.959,0.341 0.657,0.081 1.332,0.113 1.989,0.113 0.697,0 1.383,-0.04 2.074,-0.119 0.631,-0.074 1.266,-0.182 1.886,-0.335 0.57,-0.134 1.147,-0.306 1.711,-0.512 0.264,-0.101 0.521,-0.207 0.781,-0.328 0.26,-0.114 0.517,-0.234 0.764,-0.368 0.487,-0.252 0.957,-0.539 1.411,-0.847 0.454,-0.307 0.884,-0.64 1.302,-1 0.814,-0.721 1.557,-1.529 2.212,-2.396 0.663,-0.894 1.248,-1.849 1.741,-2.842 0.497,-1.015 0.921,-2.068 1.241,-3.151 0.333,-1.06 0.584,-2.161 0.744,-3.268 0.163,-1.055 0.243,-2.129 0.243,-3.196 l 0,-5.566 3.37,0 0,5.566 c 0,9.635 -5.885,21.733 -19.48,21.733 C 2.509,27.299 -3.376,15.201 -3.376,5.566 L -3.376,0 0,0 Z"
         style="fill:#ffffff;fill-opacity:1;fill-rule:nonzero;stroke:none"
         id="path4379"
         inkscape:connector-curvature="0" />
    </g>
    <g
       id="g4381"
       transform="matrix(1.25,0,0,-1.25,604.49823,215.34269)"
       style="fill:#ffffff">
      <path
         d="m 0,0 0,4.71 c 0,1.009 -0.07,2.01 -0.21,3.003 -0.136,0.948 -0.337,1.889 -0.613,2.803 -0.265,0.888 -0.601,1.741 -1.011,2.57 -0.408,0.8 -0.882,1.568 -1.419,2.28 -0.533,0.702 -1.141,1.349 -1.818,1.929 -0.675,0.575 -1.411,1.067 -2.192,1.481 -0.801,0.415 -1.634,0.727 -2.511,0.936 -0.885,0.22 -1.796,0.326 -2.714,0.326 -0.907,0 -1.824,-0.106 -2.708,-0.326 -0.868,-0.209 -1.715,-0.521 -2.509,-0.936 -0.784,-0.414 -1.519,-0.906 -2.196,-1.481 -0.667,-0.58 -1.278,-1.227 -1.821,-1.929 -0.535,-0.712 -1.008,-1.48 -1.405,-2.28 -0.42,-0.829 -0.761,-1.682 -1.021,-2.57 -0.277,-0.914 -0.48,-1.855 -0.614,-2.803 -0.14,-0.993 -0.197,-1.994 -0.197,-3.003 l 0,-4.71 3.364,0 0,4.71 c 0,7.021 3.783,11.952 9.107,11.952 5.328,0 9.112,-4.931 9.112,-11.952 L -3.376,0 0,0 Z"
         style="fill:#ffffff;fill-opacity:1;fill-rule:nonzero;stroke:none"
         id="path4383"
         inkscape:connector-curvature="0" />
    </g>
    <g
       id="g4385"
       transform="matrix(1.25,0,0,-1.25,609.02685,219.55431)"
       style="fill:#ffffff">
      <path
         d="m 0,0 0,-5.557 c 0,-0.696 -0.029,-1.39 -0.083,-2.084 -0.03,-0.366 -0.077,-0.733 -0.12,-1.101 -0.05,-0.366 -0.104,-0.734 -0.171,-1.094 -0.126,-0.754 -0.29,-1.502 -0.49,-2.241 -0.193,-0.741 -0.433,-1.469 -0.704,-2.175 -0.149,-0.361 -0.29,-0.716 -0.447,-1.062 -0.156,-0.339 -0.33,-0.687 -0.506,-1.027 -0.352,-0.66 -0.745,-1.302 -1.188,-1.915 -0.441,-0.6 -0.915,-1.168 -1.438,-1.701 -0.338,-0.334 -0.678,-0.654 -1.041,-0.954 -0.303,-0.241 -0.601,-0.468 -0.925,-0.681 -0.32,-0.215 -0.636,-0.415 -0.974,-0.602 -0.353,-0.2 -0.72,-0.379 -1.087,-0.546 -0.378,-0.161 -0.754,-0.314 -1.141,-0.449 -0.861,-0.292 -1.759,-0.505 -2.656,-0.645 -0.514,-0.08 -1.041,-0.141 -1.562,-0.181 -0.52,-0.041 -1.054,-0.061 -1.577,-0.061 -0.525,0 -1.055,0.02 -1.572,0.061 -0.524,0.04 -1.044,0.101 -1.568,0.181 -0.894,0.14 -1.785,0.353 -2.649,0.645 -0.771,0.268 -1.525,0.602 -2.235,0.995 -0.661,0.367 -1.302,0.795 -1.885,1.283 -0.367,0.3 -0.718,0.613 -1.055,0.954 -0.516,0.533 -0.997,1.101 -1.434,1.701 -0.433,0.613 -0.838,1.255 -1.191,1.915 -0.178,0.34 -0.341,0.688 -0.504,1.027 -0.157,0.346 -0.3,0.701 -0.437,1.062 -0.281,0.706 -0.521,1.434 -0.71,2.175 -0.208,0.739 -0.371,1.487 -0.498,2.241 -0.066,0.36 -0.117,0.728 -0.173,1.094 -0.04,0.368 -0.077,0.735 -0.113,1.101 -0.054,0.694 -0.081,1.388 -0.081,2.084 l 0,5.557 -3.376,0 0,-5.557 c 0,-8.856 4.347,-21.881 19.481,-21.881 15.133,0 19.48,13.025 19.48,21.881 L 3.37,0 0,0 Z"
         style="fill:#ffffff;fill-opacity:1;fill-rule:nonzero;stroke:none"
         id="path4387"
         inkscape:connector-curvature="0" />
    </g>
    <g
       id="g4389"
       transform="matrix(1.25,0,0,-1.25,600.27823,225.73406)"
       style="fill:#ffffff">
      <path
         d="m 0,0 c 0,-7.234 -3.156,-11.866 -9.112,-11.866 -5.955,0 -9.107,4.632 -9.107,11.866 l 0,4.944 -3.364,0 0,-4.944 c 0,-0.494 0.01,-1.002 0.034,-1.496 0.026,-0.499 0.066,-0.993 0.13,-1.487 0.054,-0.475 0.13,-0.941 0.22,-1.408 0.08,-0.467 0.183,-0.928 0.307,-1.388 0.237,-0.881 0.547,-1.743 0.931,-2.576 0.18,-0.4 0.39,-0.8 0.617,-1.188 0.227,-0.38 0.477,-0.753 0.74,-1.115 0.264,-0.352 0.558,-0.698 0.858,-1.026 0.307,-0.328 0.627,-0.635 0.971,-0.914 0.694,-0.582 1.454,-1.074 2.269,-1.461 0.406,-0.208 0.834,-0.374 1.261,-0.529 0.44,-0.139 0.878,-0.259 1.324,-0.36 0.464,-0.1 0.934,-0.173 1.405,-0.213 0.461,-0.052 0.934,-0.072 1.404,-0.072 0.473,0 0.945,0.02 1.419,0.072 0.467,0.04 0.927,0.113 1.39,0.213 0.901,0.194 1.773,0.488 2.59,0.889 0.814,0.387 1.575,0.879 2.265,1.461 0.688,0.566 1.301,1.226 1.828,1.94 0.538,0.715 0.988,1.496 1.361,2.303 0.384,0.833 0.695,1.695 0.931,2.576 0.247,0.921 0.411,1.848 0.524,2.796 0.12,0.988 0.18,1.981 0.18,2.983 l 0,4.944 L 0,4.944 0,0 Z"
         style="fill:#ffffff;fill-opacity:1;fill-rule:nonzero;stroke:none"
         id="path4391"
         inkscape:connector-curvature="0" />
    </g>
    <g
       id="g4393"
       transform="matrix(1.25,0,0,-1.25,625.88823,219.55431)"
       style="fill:#ffffff">
      <path
         d="m 0,0 0,-6.092 c 0,-11.097 7.504,-21.119 18.791,-21.119 11.273,0 18.77,10.022 18.77,21.119 l 0,6.092 -3.37,0 0,-6.092 c 0,-1.188 -0.096,-2.362 -0.294,-3.53 -0.096,-0.567 -0.216,-1.134 -0.357,-1.689 -0.147,-0.553 -0.317,-1.101 -0.5,-1.647 -0.187,-0.528 -0.391,-1.042 -0.617,-1.548 -0.234,-0.507 -0.484,-1.008 -0.764,-1.488 -0.264,-0.466 -0.551,-0.928 -0.855,-1.368 -0.303,-0.441 -0.633,-0.874 -0.98,-1.274 -0.664,-0.802 -1.412,-1.528 -2.233,-2.176 -0.396,-0.315 -0.817,-0.614 -1.244,-0.888 -0.437,-0.267 -0.877,-0.521 -1.338,-0.741 -0.47,-0.233 -0.951,-0.425 -1.437,-0.6 -0.491,-0.173 -0.991,-0.319 -1.496,-0.433 -0.539,-0.128 -1.084,-0.22 -1.637,-0.274 -0.544,-0.061 -1.104,-0.093 -1.648,-0.093 -0.561,0 -1.108,0.032 -1.662,0.093 -0.547,0.054 -1.095,0.146 -1.632,0.267 -0.51,0.121 -1.013,0.267 -1.505,0.44 -0.483,0.175 -0.967,0.367 -1.424,0.6 -0.924,0.447 -1.789,0.995 -2.595,1.629 -0.808,0.648 -1.565,1.374 -2.232,2.176 -0.698,0.813 -1.305,1.707 -1.832,2.642 -0.554,0.967 -1.005,1.989 -1.371,3.036 -0.394,1.087 -0.675,2.202 -0.868,3.336 -0.196,1.168 -0.296,2.342 -0.296,3.53 L 3.374,0 0,0 Z"
         style="fill:#ffffff;fill-opacity:1;fill-rule:nonzero;stroke:none"
         id="path4395"
         inkscape:connector-curvature="0" />
    </g>
    <g
       id="g4397"
       transform="matrix(1.25,0,0,-1.25,659.88585,219.55431)"
       style="fill:#ffffff">
      <path
         d="M 0,0 0,-5.865 C 0,-11.338 -3.296,-16.5 -8.407,-16.5 c -5.115,0 -8.408,5.162 -8.408,10.635 l 0,5.865 -3.374,0 0,-5.865 c 0,-0.842 0.054,-1.682 0.177,-2.517 0.127,-0.82 0.315,-1.647 0.565,-2.447 0.243,-0.795 0.553,-1.563 0.923,-2.304 0.368,-0.739 0.788,-1.446 1.278,-2.107 0.494,-0.667 1.054,-1.287 1.668,-1.842 0.631,-0.568 1.319,-1.06 2.062,-1.475 0.758,-0.42 1.578,-0.748 2.422,-0.975 0.874,-0.227 1.772,-0.339 2.687,-0.339 0.9,0 1.807,0.112 2.682,0.339 0.84,0.227 1.647,0.555 2.419,0.975 0.744,0.415 1.425,0.907 2.057,1.475 0.618,0.555 1.172,1.175 1.662,1.842 0.494,0.661 0.928,1.368 1.291,2.107 0.368,0.741 0.668,1.509 0.915,2.296 0.247,0.808 0.437,1.628 0.564,2.455 0.127,0.835 0.186,1.675 0.186,2.517 L 3.369,0 0,0 Z"
         style="fill:#ffffff;fill-opacity:1;fill-rule:nonzero;stroke:none"
         id="path4399"
         inkscape:connector-curvature="0" />
    </g>
    <g
       id="g4401"
       transform="matrix(1.25,0,0,-1.25,638.8666,215.34269)"
       style="fill:#ffffff">
      <path
         d="m 0,0 0,20.9 c 0,3.47 -2.602,5.703 -5.194,5.703 -2.663,0 -5.189,-2.233 -5.189,-5.703 l 0,-20.9 3.374,0 0,20.9 c 0,0.173 0.007,0.333 0.033,0.499 0.033,0.166 0.069,0.334 0.121,0.494 0.085,0.24 0.206,0.467 0.356,0.667 0.103,0.119 0.213,0.234 0.34,0.326 0.07,0.049 0.137,0.101 0.217,0.141 0.067,0.041 0.147,0.074 0.233,0.106 0.074,0.035 0.164,0.056 0.251,0.076 0.093,0.012 0.173,0.025 0.264,0.025 0.086,-0.007 0.166,-0.013 0.247,-0.025 0.085,-0.02 0.159,-0.041 0.24,-0.067 0.087,-0.034 0.16,-0.074 0.24,-0.115 0.08,-0.045 0.147,-0.092 0.22,-0.146 0.06,-0.047 0.127,-0.101 0.18,-0.154 0.063,-0.059 0.114,-0.12 0.17,-0.187 0.154,-0.193 0.281,-0.42 0.367,-0.667 0.053,-0.16 0.091,-0.313 0.12,-0.479 0.027,-0.161 0.037,-0.328 0.037,-0.494 L -3.373,0 0,0 Z"
         style="fill:#ffffff;fill-opacity:1;fill-rule:nonzero;stroke:none"
         id="path4403"
         inkscape:connector-curvature="0" />
    </g>
    <g
       id="g4405"
       transform="matrix(1.25,0,0,-1.25,664.09748,215.34269)"
       style="fill:#ffffff">
      <path
         d="m 0,0 0,20.9 c 0,0.18 0.02,0.359 0.047,0.539 0.01,0.068 0.02,0.142 0.036,0.214 0.02,0.074 0.047,0.148 0.074,0.22 0.04,0.121 0.093,0.24 0.153,0.353 0.067,0.107 0.134,0.215 0.213,0.321 0.105,0.127 0.225,0.24 0.352,0.334 0.039,0.034 0.08,0.061 0.126,0.092 0.043,0.027 0.09,0.054 0.137,0.074 0.026,0.021 0.057,0.041 0.093,0.054 0.034,0.007 0.06,0.02 0.094,0.041 0.08,0.026 0.16,0.047 0.233,0.067 0.087,0.012 0.174,0.018 0.25,0.025 0.09,0 0.181,-0.013 0.271,-0.025 0.083,-0.02 0.173,-0.041 0.257,-0.076 0.073,-0.032 0.153,-0.065 0.233,-0.106 0.067,-0.04 0.147,-0.092 0.206,-0.141 C 2.9,22.794 3.012,22.679 3.113,22.56 3.267,22.36 3.384,22.133 3.47,21.893 3.523,21.733 3.567,21.565 3.59,21.399 3.613,21.233 3.623,21.073 3.623,20.9 l 0,-20.9 3.37,0 0,20.9 c 0,3.47 -2.522,5.703 -5.185,5.703 -2.592,0 -5.177,-2.233 -5.177,-5.703 L -3.369,0 0,0 Z"
         style="fill:#ffffff;fill-opacity:1;fill-rule:nonzero;stroke:none"
         id="path4407"
         inkscape:connector-curvature="0" />
    </g>
    <g
       id="g4409"
       transform="matrix(1.25,0,0,-1.25,688.04823,215.34269)"
       style="fill:#ffffff">
      <path
         d="m 0,0 3.373,0 0,20.972 c 0,0.175 0.01,0.341 0.033,0.508 0.024,0.166 0.064,0.332 0.12,0.487 0.084,0.238 0.201,0.465 0.361,0.667 0.043,0.061 0.103,0.121 0.156,0.173 0.057,0.054 0.111,0.108 0.177,0.16 0.064,0.054 0.141,0.094 0.21,0.134 0.077,0.047 0.154,0.079 0.231,0.113 0.086,0.027 0.176,0.054 0.257,0.067 0.086,0.02 0.176,0.027 0.27,0.027 0.087,0 0.187,-0.007 0.28,-0.027 0.093,-0.013 0.184,-0.04 0.271,-0.072 0.086,-0.029 0.15,-0.061 0.227,-0.108 0.076,-0.04 0.142,-0.08 0.21,-0.134 0.12,-0.093 0.223,-0.193 0.313,-0.313 0.164,-0.201 0.277,-0.428 0.35,-0.667 0.061,-0.16 0.097,-0.328 0.121,-0.494 0.02,-0.175 0.036,-0.346 0.036,-0.521 l 0,-20.972 3.373,0 0,20.972 c 0,3.47 -2.453,5.705 -5.181,5.705 C 2.526,26.677 0,24.442 0,20.972 L 0,0 Z"
         style="fill:#ffffff;fill-opacity:1;fill-rule:nonzero;stroke:none"
         id="path4411"
         inkscape:connector-curvature="0" />
    </g>
    <g
       id="g4413"
       transform="matrix(1.25,0,0,-1.25,688.04823,219.55431)"
       style="fill:#ffffff">
      <path
         d="m 0,0 0,-21.199 c 0,-3.47 2.589,-5.705 5.188,-5.705 2.589,0 5.181,2.235 5.181,5.705 l 0,21.199 -3.373,0 0,-21.199 c 0,-0.18 -0.016,-0.361 -0.043,-0.534 -0.01,-0.074 -0.023,-0.153 -0.043,-0.22 -0.02,-0.081 -0.047,-0.146 -0.071,-0.22 -0.04,-0.12 -0.093,-0.234 -0.153,-0.347 -0.063,-0.119 -0.13,-0.227 -0.214,-0.321 -0.106,-0.132 -0.22,-0.24 -0.346,-0.339 -0.04,-0.034 -0.081,-0.067 -0.131,-0.094 -0.043,-0.027 -0.086,-0.046 -0.133,-0.081 -0.03,-0.013 -0.06,-0.025 -0.097,-0.045 -0.03,-0.015 -0.06,-0.027 -0.093,-0.034 -0.08,-0.034 -0.16,-0.054 -0.237,-0.074 -0.084,-0.013 -0.17,-0.02 -0.247,-0.02 -0.087,0 -0.174,0.007 -0.248,0.02 -0.083,0.02 -0.169,0.04 -0.242,0.074 -0.171,0.059 -0.317,0.146 -0.454,0.254 -0.13,0.099 -0.247,0.213 -0.351,0.339 -0.157,0.202 -0.279,0.429 -0.367,0.668 -0.053,0.154 -0.096,0.314 -0.12,0.48 -0.023,0.16 -0.033,0.328 -0.033,0.494 L 3.373,0 0,0 Z"
         style="fill:#ffffff;fill-opacity:1;fill-rule:nonzero;stroke:none"
         id="path4415"
         inkscape:connector-curvature="0" />
    </g>
    <g
       id="g4417"
       transform="matrix(1.25,0,0,-1.25,688.04823,219.55431)"
       style="fill:#ffffff">
      <path
         d="m 0,0 0,-21.199 c 0,-3.47 2.589,-5.705 5.188,-5.705 2.589,0 5.181,2.235 5.181,5.705 l 0,21.199 -3.373,0 0,-21.199 c 0,-0.18 -0.016,-0.361 -0.043,-0.534 -0.01,-0.074 -0.023,-0.153 -0.043,-0.22 -0.02,-0.081 -0.047,-0.146 -0.071,-0.22 -0.04,-0.12 -0.093,-0.234 -0.153,-0.347 -0.063,-0.119 -0.13,-0.227 -0.214,-0.321 -0.106,-0.132 -0.22,-0.24 -0.346,-0.339 -0.04,-0.034 -0.081,-0.067 -0.131,-0.094 -0.043,-0.027 -0.086,-0.046 -0.133,-0.081 -0.03,-0.013 -0.06,-0.025 -0.097,-0.045 -0.03,-0.015 -0.06,-0.027 -0.093,-0.034 -0.08,-0.034 -0.16,-0.054 -0.237,-0.074 -0.084,-0.013 -0.17,-0.02 -0.247,-0.02 -0.087,0 -0.174,0.007 -0.248,0.02 -0.083,0.02 -0.169,0.04 -0.242,0.074 -0.171,0.059 -0.317,0.146 -0.454,0.254 -0.13,0.099 -0.247,0.213 -0.351,0.339 -0.157,0.202 -0.279,0.429 -0.367,0.668 -0.053,0.154 -0.096,0.314 -0.12,0.48 -0.023,0.16 -0.033,0.328 -0.033,0.494 L 3.373,0 0,0 Z"
         style="fill:#ffffff;fill-opacity:1;fill-rule:nonzero;stroke:none"
         id="path4419"
         inkscape:connector-curvature="0" />
    </g>
    <g
       id="g4421"
       transform="matrix(1.25,0,0,-1.25,688.04823,215.34269)"
       style="fill:#ffffff">
      <path
         d="m 0,0 3.373,0 0,20.972 c 0,0.175 0.01,0.341 0.033,0.508 0.024,0.166 0.064,0.332 0.12,0.487 0.084,0.238 0.201,0.465 0.361,0.667 0.043,0.061 0.103,0.121 0.156,0.173 0.057,0.054 0.111,0.108 0.177,0.16 0.064,0.054 0.141,0.094 0.21,0.134 0.077,0.047 0.154,0.079 0.231,0.113 0.086,0.027 0.176,0.054 0.257,0.067 0.086,0.02 0.176,0.027 0.27,0.027 0.087,0 0.187,-0.007 0.28,-0.027 0.093,-0.013 0.184,-0.04 0.271,-0.072 0.086,-0.029 0.15,-0.061 0.227,-0.108 0.076,-0.04 0.142,-0.08 0.21,-0.134 0.12,-0.093 0.223,-0.193 0.313,-0.313 0.164,-0.201 0.277,-0.428 0.35,-0.667 0.061,-0.16 0.097,-0.328 0.121,-0.494 0.02,-0.175 0.036,-0.346 0.036,-0.521 l 0,-20.972 3.373,0 0,20.972 c 0,3.47 -2.453,5.705 -5.181,5.705 C 2.526,26.677 0,24.442 0,20.972 L 0,0 Z"
         style="fill:#ffffff;fill-opacity:1;fill-rule:nonzero;stroke:none"
         id="path4423"
         inkscape:connector-curvature="0" />
    </g>
    <g
       id="g4425"
       transform="matrix(1.25,0,0,-1.25,664.09748,215.34269)"
       style="fill:#ffffff">
      <path
         d="m 0,0 0,20.9 c 0,0.18 0.02,0.359 0.047,0.539 0.01,0.068 0.02,0.142 0.036,0.214 0.02,0.074 0.047,0.148 0.074,0.22 0.04,0.121 0.093,0.24 0.153,0.353 0.067,0.107 0.134,0.215 0.213,0.321 0.105,0.127 0.225,0.24 0.352,0.334 0.039,0.034 0.08,0.061 0.126,0.092 0.043,0.027 0.09,0.054 0.137,0.074 0.026,0.021 0.057,0.041 0.093,0.054 0.034,0.007 0.06,0.02 0.094,0.041 0.08,0.026 0.16,0.047 0.233,0.067 0.087,0.012 0.174,0.018 0.25,0.025 0.09,0 0.181,-0.013 0.271,-0.025 0.083,-0.02 0.173,-0.041 0.257,-0.076 0.073,-0.032 0.153,-0.065 0.233,-0.106 0.067,-0.04 0.147,-0.092 0.206,-0.141 C 2.9,22.794 3.012,22.679 3.113,22.56 3.267,22.36 3.384,22.133 3.47,21.893 3.523,21.733 3.567,21.565 3.59,21.399 3.613,21.233 3.623,21.073 3.623,20.9 l 0,-20.9 3.37,0 0,20.9 c 0,3.47 -2.522,5.703 -5.185,5.703 -2.592,0 -5.177,-2.233 -5.177,-5.703 L -3.369,0 0,0 Z"
         style="fill:#ffffff;fill-opacity:1;fill-rule:nonzero;stroke:none"
         id="path4427"
         inkscape:connector-curvature="0" />
    </g>
    <g
       id="g4429"
       transform="matrix(1.25,0,0,-1.25,638.8666,215.34269)"
       style="fill:#ffffff">
      <path
         d="m 0,0 0,20.9 c 0,3.47 -2.602,5.703 -5.194,5.703 -2.663,0 -5.189,-2.233 -5.189,-5.703 l 0,-20.9 3.374,0 0,20.9 c 0,0.173 0.007,0.333 0.033,0.499 0.033,0.166 0.069,0.334 0.121,0.494 0.085,0.24 0.206,0.467 0.356,0.667 0.103,0.119 0.213,0.234 0.34,0.326 0.07,0.049 0.137,0.101 0.217,0.141 0.067,0.041 0.147,0.074 0.233,0.106 0.074,0.035 0.164,0.056 0.251,0.076 0.093,0.012 0.173,0.025 0.264,0.025 0.086,-0.007 0.166,-0.013 0.247,-0.025 0.085,-0.02 0.159,-0.041 0.24,-0.067 0.087,-0.034 0.16,-0.074 0.24,-0.115 0.08,-0.045 0.147,-0.092 0.22,-0.146 0.06,-0.047 0.127,-0.101 0.18,-0.154 0.063,-0.059 0.114,-0.12 0.17,-0.187 0.154,-0.193 0.281,-0.42 0.367,-0.667 0.053,-0.16 0.091,-0.313 0.12,-0.479 0.027,-0.161 0.037,-0.328 0.037,-0.494 L -3.373,0 0,0 Z"
         style="fill:#ffffff;fill-opacity:1;fill-rule:nonzero;stroke:none"
         id="path4431"
         inkscape:connector-curvature="0" />
    </g>
    <g
       id="g4433"
       transform="matrix(1.25,0,0,-1.25,659.88585,219.55431)"
       style="fill:#ffffff">
      <path
         d="M 0,0 0,-5.865 C 0,-11.338 -3.296,-16.5 -8.407,-16.5 c -5.115,0 -8.408,5.162 -8.408,10.635 l 0,5.865 -3.374,0 0,-5.865 c 0,-0.842 0.054,-1.682 0.177,-2.517 0.127,-0.82 0.315,-1.647 0.565,-2.447 0.243,-0.795 0.553,-1.563 0.923,-2.304 0.368,-0.739 0.788,-1.446 1.278,-2.107 0.494,-0.667 1.054,-1.287 1.668,-1.842 0.631,-0.568 1.319,-1.06 2.062,-1.475 0.758,-0.42 1.578,-0.748 2.422,-0.975 0.874,-0.227 1.772,-0.339 2.687,-0.339 0.9,0 1.807,0.112 2.682,0.339 0.84,0.227 1.647,0.555 2.419,0.975 0.744,0.415 1.425,0.907 2.057,1.475 0.618,0.555 1.172,1.175 1.662,1.842 0.494,0.661 0.928,1.368 1.291,2.107 0.368,0.741 0.668,1.509 0.915,2.296 0.247,0.808 0.437,1.628 0.564,2.455 0.127,0.835 0.186,1.675 0.186,2.517 L 3.369,0 0,0 Z"
         style="fill:#ffffff;fill-opacity:1;fill-rule:nonzero;stroke:none"
         id="path4435"
         inkscape:connector-curvature="0" />
    </g>
    <g
       id="g4437"
       transform="matrix(1.25,0,0,-1.25,625.88823,219.55431)"
       style="fill:#ffffff">
      <path
         d="m 0,0 0,-6.092 c 0,-11.097 7.504,-21.119 18.791,-21.119 11.273,0 18.77,10.022 18.77,21.119 l 0,6.092 -3.37,0 0,-6.092 c 0,-1.188 -0.096,-2.362 -0.294,-3.53 -0.096,-0.567 -0.216,-1.134 -0.357,-1.689 -0.147,-0.553 -0.317,-1.101 -0.5,-1.647 -0.187,-0.528 -0.391,-1.042 -0.617,-1.548 -0.234,-0.507 -0.484,-1.008 -0.764,-1.488 -0.264,-0.466 -0.551,-0.928 -0.855,-1.368 -0.303,-0.441 -0.633,-0.874 -0.98,-1.274 -0.664,-0.802 -1.412,-1.528 -2.233,-2.176 -0.396,-0.315 -0.817,-0.614 -1.244,-0.888 -0.437,-0.267 -0.877,-0.521 -1.338,-0.741 -0.47,-0.233 -0.951,-0.425 -1.437,-0.6 -0.491,-0.173 -0.991,-0.319 -1.496,-0.433 -0.539,-0.128 -1.084,-0.22 -1.637,-0.274 -0.544,-0.061 -1.104,-0.093 -1.648,-0.093 -0.561,0 -1.108,0.032 -1.662,0.093 -0.547,0.054 -1.095,0.146 -1.632,0.267 -0.51,0.121 -1.013,0.267 -1.505,0.44 -0.483,0.175 -0.967,0.367 -1.424,0.6 -0.924,0.447 -1.789,0.995 -2.595,1.629 -0.808,0.648 -1.565,1.374 -2.232,2.176 -0.698,0.813 -1.305,1.707 -1.832,2.642 -0.554,0.967 -1.005,1.989 -1.371,3.036 -0.394,1.087 -0.675,2.202 -0.868,3.336 -0.196,1.168 -0.296,2.342 -0.296,3.53 L 3.374,0 0,0 Z"
         style="fill:#ffffff;fill-opacity:1;fill-rule:nonzero;stroke:none"
         id="path4439"
         inkscape:connector-curvature="0" />
    </g>
    <g
       id="g4441"
       transform="matrix(1.25,0,0,-1.25,600.27823,225.73406)"
       style="fill:#ffffff">
      <path
         d="m 0,0 c 0,-7.234 -3.156,-11.866 -9.112,-11.866 -5.955,0 -9.107,4.632 -9.107,11.866 l 0,4.944 -3.364,0 0,-4.944 c 0,-0.494 0.01,-1.002 0.034,-1.496 0.026,-0.499 0.066,-0.993 0.13,-1.487 0.054,-0.475 0.13,-0.941 0.22,-1.408 0.08,-0.467 0.183,-0.928 0.307,-1.388 0.237,-0.881 0.547,-1.743 0.931,-2.576 0.18,-0.4 0.39,-0.8 0.617,-1.188 0.227,-0.38 0.477,-0.753 0.74,-1.115 0.264,-0.352 0.558,-0.698 0.858,-1.026 0.307,-0.328 0.627,-0.635 0.971,-0.914 0.694,-0.582 1.454,-1.074 2.269,-1.461 0.406,-0.208 0.834,-0.374 1.261,-0.529 0.44,-0.139 0.878,-0.259 1.324,-0.36 0.464,-0.1 0.934,-0.173 1.405,-0.213 0.461,-0.052 0.934,-0.072 1.404,-0.072 0.473,0 0.945,0.02 1.419,0.072 0.467,0.04 0.927,0.113 1.39,0.213 0.901,0.194 1.773,0.488 2.59,0.889 0.814,0.387 1.575,0.879 2.265,1.461 0.688,0.566 1.301,1.226 1.828,1.94 0.538,0.715 0.988,1.496 1.361,2.303 0.384,0.833 0.695,1.695 0.931,2.576 0.247,0.921 0.411,1.848 0.524,2.796 0.12,0.988 0.18,1.981 0.18,2.983 l 0,4.944 L 0,4.944 0,0 Z"
         style="fill:#ffffff;fill-opacity:1;fill-rule:nonzero;stroke:none"
         id="path4443"
         inkscape:connector-curvature="0" />
    </g>
    <g
       id="g4445"
       transform="matrix(1.25,0,0,-1.25,609.02685,219.55431)"
       style="fill:#ffffff">
      <path
         d="m 0,0 0,-5.557 c 0,-0.696 -0.029,-1.39 -0.083,-2.084 -0.03,-0.366 -0.077,-0.733 -0.12,-1.101 -0.05,-0.366 -0.104,-0.734 -0.171,-1.094 -0.126,-0.754 -0.29,-1.502 -0.49,-2.241 -0.193,-0.741 -0.433,-1.469 -0.704,-2.175 -0.149,-0.361 -0.29,-0.716 -0.447,-1.062 -0.156,-0.339 -0.33,-0.687 -0.506,-1.027 -0.352,-0.66 -0.745,-1.302 -1.188,-1.915 -0.441,-0.6 -0.915,-1.168 -1.438,-1.701 -0.338,-0.334 -0.678,-0.654 -1.041,-0.954 -0.303,-0.241 -0.601,-0.468 -0.925,-0.681 -0.32,-0.215 -0.636,-0.415 -0.974,-0.602 -0.353,-0.2 -0.72,-0.379 -1.087,-0.546 -0.378,-0.161 -0.754,-0.314 -1.141,-0.449 -0.861,-0.292 -1.759,-0.505 -2.656,-0.645 -0.514,-0.08 -1.041,-0.141 -1.562,-0.181 -0.52,-0.041 -1.054,-0.061 -1.577,-0.061 -0.525,0 -1.055,0.02 -1.572,0.061 -0.524,0.04 -1.044,0.101 -1.568,0.181 -0.894,0.14 -1.785,0.353 -2.649,0.645 -0.771,0.268 -1.525,0.602 -2.235,0.995 -0.661,0.367 -1.302,0.795 -1.885,1.283 -0.367,0.3 -0.718,0.613 -1.055,0.954 -0.516,0.533 -0.997,1.101 -1.434,1.701 -0.433,0.613 -0.838,1.255 -1.191,1.915 -0.178,0.34 -0.341,0.688 -0.504,1.027 -0.157,0.346 -0.3,0.701 -0.437,1.062 -0.281,0.706 -0.521,1.434 -0.71,2.175 -0.208,0.739 -0.371,1.487 -0.498,2.241 -0.066,0.36 -0.117,0.728 -0.173,1.094 -0.04,0.368 -0.077,0.735 -0.113,1.101 -0.054,0.694 -0.081,1.388 -0.081,2.084 l 0,5.557 -3.376,0 0,-5.557 c 0,-8.856 4.347,-21.881 19.481,-21.881 15.133,0 19.48,13.025 19.48,21.881 L 3.37,0 0,0 Z"
         style="fill:#ffffff;fill-opacity:1;fill-rule:nonzero;stroke:none"
         id="path4447"
         inkscape:connector-curvature="0" />
    </g>
    <g
       id="g4449"
       transform="matrix(1.25,0,0,-1.25,604.49823,215.34269)"
       style="fill:#ffffff">
      <path
         d="m 0,0 0,4.71 c 0,1.009 -0.07,2.01 -0.21,3.003 -0.136,0.948 -0.337,1.889 -0.613,2.803 -0.265,0.888 -0.601,1.741 -1.011,2.57 -0.408,0.8 -0.882,1.568 -1.419,2.28 -0.533,0.702 -1.141,1.349 -1.818,1.929 -0.675,0.575 -1.411,1.067 -2.192,1.481 -0.801,0.415 -1.634,0.727 -2.511,0.936 -0.885,0.22 -1.796,0.326 -2.714,0.326 -0.907,0 -1.824,-0.106 -2.708,-0.326 -0.868,-0.209 -1.715,-0.521 -2.509,-0.936 -0.784,-0.414 -1.519,-0.906 -2.196,-1.481 -0.667,-0.58 -1.278,-1.227 -1.821,-1.929 -0.535,-0.712 -1.008,-1.48 -1.405,-2.28 -0.42,-0.829 -0.761,-1.682 -1.021,-2.57 -0.277,-0.914 -0.48,-1.855 -0.614,-2.803 -0.14,-0.993 -0.197,-1.994 -0.197,-3.003 l 0,-4.71 3.364,0 0,4.71 c 0,7.021 3.783,11.952 9.107,11.952 5.328,0 9.112,-4.931 9.112,-11.952 L -3.376,0 0,0 Z"
         style="fill:#ffffff;fill-opacity:1;fill-rule:nonzero;stroke:none"
         id="path4451"
         inkscape:connector-curvature="0" />
    </g>
    <g
       id="g4453"
       transform="matrix(1.25,0,0,-1.25,568.7581,215.34269)"
       style="fill:#ffffff">
      <path
         d="m 0,0 0,5.566 c 0,1.067 0.074,2.141 0.24,3.196 0.081,0.553 0.184,1.107 0.304,1.654 0.127,0.541 0.267,1.082 0.437,1.614 0.333,1.083 0.747,2.136 1.248,3.151 0.49,0.993 1.07,1.948 1.735,2.842 0.33,0.433 0.677,0.854 1.05,1.254 0.368,0.401 0.758,0.781 1.175,1.142 0.403,0.36 0.834,0.693 1.291,1 0.451,0.308 0.925,0.595 1.408,0.847 0.25,0.134 0.507,0.254 0.764,0.368 0.26,0.121 0.521,0.227 0.794,0.328 0.274,0.099 0.554,0.191 0.847,0.279 0.281,0.094 0.564,0.166 0.864,0.233 0.641,0.16 1.295,0.274 1.959,0.341 0.657,0.081 1.332,0.113 1.989,0.113 0.697,0 1.383,-0.04 2.074,-0.119 0.631,-0.074 1.266,-0.182 1.886,-0.335 0.57,-0.134 1.147,-0.306 1.711,-0.512 0.264,-0.101 0.521,-0.207 0.781,-0.328 0.26,-0.114 0.517,-0.234 0.764,-0.368 0.487,-0.252 0.957,-0.539 1.411,-0.847 0.454,-0.307 0.884,-0.64 1.302,-1 0.814,-0.721 1.557,-1.529 2.212,-2.396 0.663,-0.894 1.248,-1.849 1.741,-2.842 0.497,-1.015 0.921,-2.068 1.241,-3.151 0.333,-1.06 0.584,-2.161 0.744,-3.268 0.163,-1.055 0.243,-2.129 0.243,-3.196 l 0,-5.566 3.37,0 0,5.566 c 0,9.635 -5.885,21.733 -19.48,21.733 C 2.509,27.299 -3.376,15.201 -3.376,5.566 L -3.376,0 0,0 Z"
         style="fill:#ffffff;fill-opacity:1;fill-rule:nonzero;stroke:none"
         id="path4455"
         inkscape:connector-curvature="0" />
    </g>
    <g
       id="g4457"
       transform="matrix(1.25,0,0,-1.25,861.02848,208.03693)"
       style="fill:#ffffff">
      <path
         d="m 0,0 c -0.214,0.714 -0.444,1.435 -0.704,2.143 -0.214,0.586 -0.45,1.174 -0.708,1.741 -0.443,0.981 -0.954,1.929 -1.558,2.803 -0.304,0.44 -0.624,0.868 -0.974,1.262 -0.35,0.406 -0.724,0.786 -1.121,1.139 -0.407,0.361 -0.831,0.689 -1.278,0.99 -0.45,0.306 -0.924,0.579 -1.411,0.826 -0.123,0.061 -0.244,0.113 -0.361,0.174 1.372,3.791 2.239,6.219 2.239,6.219 0.845,2.228 2.806,3.462 4.761,3.462 1.965,0 3.926,-1.234 4.764,-3.462 l 16.472,-45.935 c 0.21,-0.694 0.28,-1.314 0.28,-1.855 0,-3.237 -2.452,-5.546 -5.042,-5.546 -2.525,0 -4.139,1.929 -4.697,3.391 -0.02,0.047 -0.037,0.094 -0.053,0.14 -0.9,2.749 -1.802,5.505 -2.709,8.261 l -14.67,0 c 1.118,3.443 2.242,6.886 3.364,10.328 l 7.969,0 C 3.042,-9.281 1.521,-4.643 0,0"
         style="fill:#ffffff;fill-opacity:1;fill-rule:nonzero;stroke:none"
         id="path4459"
         inkscape:connector-curvature="0" />
    </g>
    <g
       id="g4461"
       transform="matrix(1.25,0,0,-1.25,731.89123,222.15681)"
       style="fill:#ffffff">
      <path
         d="m 0,0 c 1.382,3.176 2.759,6.345 4.134,9.521 -1.021,0.461 -2.052,0.915 -3.072,1.382 -2.406,1.075 -4.251,2.482 -4.251,5.739 0,2.775 2.525,5.471 6.515,5.471 4.068,0 6.516,-1.615 8.965,-3.163 0.984,-0.613 1.758,-0.921 2.879,-0.921 3.221,0 5.042,2.696 5.042,5.391 0,1.849 -0.771,3.084 -1.612,4.01 -2.028,2.156 -7.777,5.32 -15.203,5.32 -10.934,0 -16.956,-8.562 -16.956,-16.108 0,-9.576 5.922,-13.379 10.46,-15.335 C -2.068,0.874 -1.031,0.44 0,0"
         style="fill:#ffffff;fill-opacity:1;fill-rule:nonzero;stroke:none"
         id="path4463"
         inkscape:connector-curvature="0" />
    </g>
    <g
       id="g4465"
       transform="matrix(1.25,0,0,-1.25,911.43998,182.47081)"
       style="fill:#ffffff">
      <path
         d="m 0,0 -4.657,0 c -0.635,0 -1.256,0 -1.886,-0.173 -1.425,-0.393 -2.522,-1.442 -3.173,-2.724 -0.39,-0.78 -0.6,-1.553 -0.651,-2.428 -0.036,-0.654 -0.01,-1.308 -0.01,-1.961 l 0,-6.339 0,-21.707 0,-10.855 0,-3.744 c 0,-0.402 -0.012,-0.802 0.008,-1.202 0.029,-0.701 0.159,-1.354 0.42,-2.008 0.47,-1.186 1.321,-2.222 2.459,-2.842 1.605,-0.875 3.529,-0.761 5.034,0.266 1.571,1.067 2.419,2.882 2.453,4.737 C 0.016,-49.819 0,-48.658 0,-47.496 L 0,-40.129 0,0 Z"
         style="fill:#ffffff;fill-opacity:1;fill-rule:nonzero;stroke:none"
         id="path4467"
         inkscape:connector-curvature="0" />
    </g>
    <g
       id="g4469"
       transform="matrix(1.25,0,0,-1.25,915.65148,195.86631)"
       style="fill:#ffffff">
      <path
         d="m 0,0 8.258,0 c 3.293,0 5.465,-2.929 5.465,-5.932 0,-3.003 -2.172,-6.013 -5.465,-6.013 l -8.258,0 0,-10.328 c 4.08,0 11.107,-0.006 15.124,1.62 -0.014,0.029 0.03,0.009 0.043,0.014 0.013,0.006 0.027,0.015 0.044,0.02 0.03,0.013 0.056,0.027 0.086,0.033 0.057,0.027 0.117,0.054 0.167,0.074 0.12,0.054 0.233,0.106 0.347,0.167 0.226,0.107 0.457,0.227 0.674,0.361 0.463,0.259 0.901,0.56 1.328,0.881 0.907,0.692 1.708,1.48 2.432,2.362 1.421,1.735 2.395,3.57 3.065,5.704 1.312,4.171 0.952,8.768 -0.89,12.711 -1.865,3.998 -5.157,7.1 -9.452,8.389 -1.515,0.453 -3.012,0.653 -4.59,0.653 l -1.859,0 L 0,10.716 0,0 Z"
         style="fill:#ffffff;fill-opacity:1;fill-rule:nonzero;stroke:none"
         id="path4471"
         inkscape:connector-curvature="0" />
    </g>
    <g
       id="g4473"
       transform="matrix(1.25,0,0,-1.25,795.4311,223.79944)"
       style="fill:#ffffff">
      <path
         d="m 0,0 -7.282,0 0,-17.803 c 0,-3.542 -2.663,-5.705 -5.182,-5.705 -2.522,0 -5.187,2.163 -5.187,5.705 l 0,45.54 c 0,3.398 2.524,5.706 5.187,5.706 2.662,0 5.182,-2.308 5.182,-5.706 l 0,-17.101 7.282,0 L 0,0 Z"
         style="fill:#ffffff;fill-opacity:1;fill-rule:nonzero;stroke:none"
         id="path4475"
         inkscape:connector-curvature="0" />
    </g>
    <g
       id="g4477"
       transform="matrix(1.25,0,0,-1.25,808.76023,210.50493)"
       style="fill:#ffffff">
      <path
         d="m 0,0 0,17.102 c 0,3.398 2.589,5.705 5.182,5.705 2.735,0 5.187,-2.307 5.187,-5.705 l 0,-45.54 c 0,-3.237 -2.385,-5.705 -5.187,-5.705 -2.593,0 -5.182,2.235 -5.182,5.705 l 0,17.802 -7.29,0 L -7.29,0 0,0 Z"
         style="fill:#ffffff;fill-opacity:1;fill-rule:nonzero;stroke:none"
         id="path4479"
         inkscape:connector-curvature="0" />
    </g>
    <g
       id="g4481"
       transform="matrix(1.25,0,0,-1.25,936.3496,225.50093)"
       style="fill:#ffffff">
      <path
         d="m 0,0 c 2.085,-4.357 5.428,-11.089 6.836,-14.126 0.283,-0.62 0.557,-1.696 0.557,-2.47 0,-3.082 -2.308,-5.625 -5.114,-5.625 -2.029,0 -3.713,1.229 -4.551,3.003 0,0 -5.335,11.563 -8.021,17.39 0.188,0.006 0.378,0.02 0.567,0.033 0.435,0.027 0.871,0.059 1.304,0.093 0.438,0.04 0.875,0.08 1.309,0.127 0.277,0.027 0.563,0.066 0.847,0.1 0.278,0.033 0.564,0.073 0.848,0.114 0.544,0.079 1.097,0.166 1.634,0.274 0.271,0.052 0.535,0.106 0.798,0.166 0.264,0.061 0.527,0.121 0.784,0.187 0.26,0.067 0.521,0.141 0.774,0.213 0.257,0.087 0.507,0.166 0.763,0.26 C -0.444,-0.18 -0.221,-0.094 0,0"
         style="fill:#ffffff;fill-opacity:1;fill-rule:nonzero;stroke:none"
         id="path4483"
         inkscape:connector-curvature="0" />
    </g>
    <g
       id="g4485"
       transform="matrix(1.25,0,0,-1.25,993.11623,210.79706)"
       style="fill:#ffffff">
      <path
         d="m 0,0 c 2.943,0 4.835,-2.615 4.835,-5.31 0,-2.936 -2.102,-5.173 -4.835,-5.173 l -16.891,0 0,-9.581 0,-2.75 0,-10.709 -5.185,0 c -2.873,0 -5.181,2.542 -5.181,5.705 l 0,44.774 c 0,3.236 2.379,5.705 5.181,5.705 l 5.185,0 0,-10.716 0,-4.445 0,-7.5 L 0,0 Z"
         style="fill:#ffffff;fill-opacity:1;fill-rule:nonzero;stroke:none"
         id="path4487"
         inkscape:connector-curvature="0" />
    </g>
    <g
       id="g4489"
       transform="matrix(1.25,0,0,-1.25,976.2181,182.47081)"
       style="fill:#ffffff">
      <path
         d="m 0,0 18,0 c 3.012,0 4.907,-2.702 4.907,-5.398 0,-2.776 -1.962,-5.318 -4.907,-5.318 l -18,0 L 0,0 Z"
         style="fill:#ffffff;fill-opacity:1;fill-rule:nonzero;stroke:none"
         id="path4491"
         inkscape:connector-curvature="0" />
    </g>
    <g
       id="g4493"
       transform="matrix(1.25,0,0,-1.25,976.2181,239.31431)"
       style="fill:#ffffff">
      <path
         d="m 0,0 18.073,0 c 2.872,0 4.905,-2.534 4.905,-5.391 0,-2.85 -2.033,-5.318 -4.905,-5.318 L 0,-10.709 0,0 Z"
         style="fill:#ffffff;fill-opacity:1;fill-rule:nonzero;stroke:none"
         id="path4495"
         inkscape:connector-curvature="0" />
    </g>
    <g
       id="g4497"
       transform="matrix(1.25,0,0,-1.25,733.21873,208.52843)"
       style="fill:#ffffff">
      <path
         d="M 0,0 3.072,-1.381"
         style="fill:#ffffff;fill-opacity:1;fill-rule:nonzero;stroke:none"
         id="path4499"
         inkscape:connector-curvature="0" />
    </g>
    <g
       id="g4501"
       transform="matrix(1.25,0,0,-1.25,728.01773,220.52268)"
       style="fill:#ffffff">
      <path
         d="M 0,0 3.099,-1.307"
         style="fill:#ffffff;fill-opacity:1;fill-rule:nonzero;stroke:none"
         id="path4503"
         inkscape:connector-curvature="0" />
    </g>
    <g
       id="g4505"
       transform="matrix(1.25,0,0,-1.25,735.77823,223.79106)"
       style="fill:#ffffff">
      <path
         d="m 0,0 c 0.985,-0.408 1.969,-0.822 2.95,-1.242 4.346,-1.848 5.678,-3.776 5.678,-6.392 0,-3.323 -2.799,-5.706 -7.57,-5.706 -4.831,0 -8.901,2.851 -10.373,4.086 -0.7,0.539 -1.747,1.227 -3.22,1.227 -3.012,0 -4.974,-2.617 -4.974,-5.546 0,-1.541 0.488,-3.003 1.748,-4.164 2.737,-2.46 9.111,-6.238 16.749,-6.238 10.583,0 18.009,6.626 18.009,16.341 0,9.015 -6.095,13.479 -11.91,15.947 C 6.376,8.627 5.312,9.095 4.163,9.595 2.779,6.392 1.385,3.196 0,0"
         style="fill:#ffffff;fill-opacity:1;fill-rule:nonzero;stroke:none"
         id="path4507"
         inkscape:connector-curvature="0" />
    </g>
    <g
       id="g4509"
       transform="matrix(1.25,0,0,-1.25,857.3831,210.62906)"
       style="fill:#ffffff">
      <path
         d="m 0,0 c -3.323,-10.19 -6.643,-20.385 -9.969,-30.574 -0.557,-1.462 -2.168,-3.391 -4.694,-3.391 -2.593,0 -5.045,2.309 -5.045,5.545 0,0.541 0.074,1.161 0.284,1.855 0,0 8.271,23.081 13.089,36.52 C -3.047,8.32 -1.365,5.036 0,0"
         style="fill:#ffffff;fill-opacity:1;fill-rule:nonzero;stroke:none"
         id="path4511"
         inkscape:connector-curvature="0" />
    </g>
    <path
       d="m 1076.4962,265.96256 -11.0275,0 0,-96.845 11.0275,0 0,96.845 z"
       style="fill:#ffffff;fill-opacity:1;fill-rule:nonzero;stroke:none"
       id="path4513"
       inkscape:connector-curvature="0" />
    <path
       d="m 1472.04,265.96256 -11.0275,0 0,-96.845 11.0275,0 0,96.845 z"
       style="fill:#ffffff;fill-opacity:1;fill-rule:nonzero;stroke:none"
       id="path4515"
       inkscape:connector-curvature="0" />
  </g>
</svg>
